<svg id="Capa_1" data-name="Capa 1" xmlns="http://www.w3.org/2000/svg" viewBox="0 0 1029.76 441.06"><defs><style>.cls-1{fill:#13223f;}.cls-2{fill:#7fb9e2;}</style></defs><title>4 Layout Aplicacion movil2</title><path class="cls-1" d="M26.56,386.15V28.87H107.8a173.87,173.87,0,0,1,69.45,14,176.4,176.4,0,0,1,57,38.44,170.79,170.79,0,0,1,38,56.78,170.07,170.07,0,0,1,14.19,69.23A172.14,172.14,0,0,1,272.25,277a177.75,177.75,0,0,1-38,56.78,182.85,182.85,0,0,1-57,38.21,173.89,173.89,0,0,1-69.45,14.2Zm49.36-49.57H107.8A131.37,131.37,0,0,0,158,326.53a128.44,128.44,0,0,0,41.06-27.74A130.58,130.58,0,0,0,227,257.74a129.21,129.21,0,0,0,10.05-50.45A127.36,127.36,0,0,0,227,157.06a124.8,124.8,0,0,0-27.95-40.84A125.1,125.1,0,0,0,158,88.49,123.8,123.8,0,0,0,107.8,78.22H75.92Z"/><path class="cls-1" d="M482.77,386.15l-63.33-79.71H366.59v79.71H316.14V28.87h88.45c38.44,0,71,13.54,98.06,40.62s40.62,59.62,40.62,98.05-13.54,71.2-40.62,98.28a152.93,152.93,0,0,1-31.45,23.8L547,386.15ZM404.59,256c24.46,0,45.21-8.74,62.46-26,17.47-17.25,26-38,26-62.46s-8.52-45.42-26-62.46c-17.25-17.47-38-26-62.46-26h-38V256Z"/><path class="cls-1" d="M1003.2,386.15H954.5V28.87h48.7Z"/><circle class="cls-2" cx="741.35" cy="207.61" r="101.56"/><path class="cls-2" d="M599.32,193.28c6.53-67,60.72-121.17,127.7-127.7a142.49,142.49,0,0,1,115.62,41.47L868.74,81h0a171.53,171.53,0,0,0-59.07-39.1,179.93,179.93,0,0,0-134.6.16,178.16,178.16,0,0,0-98.33,98.33,180.55,180.55,0,0,0,0,134.44,171.85,171.85,0,0,0,39.11,59.06h0l24.94-24.94A142.47,142.47,0,0,1,599.32,193.28Z"/><path class="cls-1" d="M907.85,140A172.81,172.81,0,0,0,868.74,81l-26.1,26.1a142.47,142.47,0,0,1,40.7,115.34C876.64,289,822.76,342.9,756.13,349.6a142.47,142.47,0,0,1-115.34-40.7l-24.94,24.94A173,173,0,0,0,674.92,373a180.55,180.55,0,0,0,134.44,0,178.24,178.24,0,0,0,98.33-98.33,179.93,179.93,0,0,0,.16-134.6Z"/></svg>